<svg version="1.1" id="Layer_1" xmlns="http://www.w3.org/2000/svg" xmlns:xlink="http://www.w3.org/1999/xlink" x="0px" y="0px"
	 width="100%" viewBox="0 0 1024 1024" enable-background="new 0 0 1024 1024" xml:space="preserve">
<path fill="#000000" opacity="1.000000" stroke="none" 
	d="
M586.999390,726.228516 
	C514.512939,726.234375 442.522827,725.815613 370.541779,726.439941 
	C337.879700,726.723145 323.587189,702.475464 323.623749,679.639893 
	C323.794220,573.157227 323.722565,466.674103 323.812531,360.191223 
	C323.828583,341.160828 331.813385,326.893066 349.550720,318.723358 
	C354.694061,316.354340 360.102997,315.798157 365.632690,315.775940 
	C400.617859,315.635498 435.606140,315.748444 470.587463,315.308807 
	C500.728943,314.930023 530.860413,315.431061 560.994446,315.431488 
	C589.790161,315.431885 618.585632,316.176788 647.394409,315.281036 
	C665.173645,314.728180 683.003479,315.421478 700.800232,315.924042 
	C719.439392,316.450439 736.460510,332.057678 738.248657,350.613281 
	C740.312988,372.035858 738.976257,393.562714 739.122803,415.039703 
	C739.286316,439.023254 737.494690,463.018280 738.486023,486.992645 
	C739.498657,511.483948 737.819397,535.946716 738.463867,560.409546 
	C739.240112,589.868591 738.920105,619.326904 739.115662,648.785339 
	C739.187927,659.673706 738.428955,670.403320 735.387695,680.921448 
	C734.562195,683.776550 733.527039,686.817932 734.338501,689.776794 
	C737.246704,700.380493 731.556458,707.748291 724.963745,714.563538 
	C717.111389,722.680969 707.022827,725.814331 695.966736,725.892090 
	C673.473389,726.050354 650.978882,726.043396 628.484863,726.106873 
	C614.823059,726.145386 601.161316,726.188477 586.999390,726.228516 
M584.500000,383.963715 
	C576.666931,383.953583 568.833862,383.932465 561.000793,383.936646 
	C554.134521,383.940308 552.531067,385.681152 552.431519,392.480347 
	C552.226929,406.454834 552.547424,420.427673 552.494873,434.402771 
	C552.205811,511.233124 552.379150,588.065186 552.309937,664.896545 
	C552.306091,669.154785 553.730896,670.811707 558.140137,670.731628 
	C570.135803,670.513733 582.138367,670.692810 594.138062,670.674133 
	C600.673035,670.664001 600.736511,670.627075 600.737854,663.895325 
	C600.744934,628.062744 600.720093,592.230103 600.700378,556.397522 
	C600.696106,548.616150 600.684875,548.592957 608.682617,548.595398 
	C635.015442,548.603455 661.348328,548.636597 687.681152,548.644470 
	C694.204407,548.646423 694.750061,548.088928 694.768677,541.464905 
	C694.801514,529.798584 694.814209,518.132080 694.816162,506.465668 
	C694.817627,497.574036 693.665405,496.398529 684.743774,496.392517 
	C659.244202,496.375305 633.744690,496.390442 608.245117,496.392273 
	C600.745850,496.392822 600.739258,496.391968 600.729126,489.141266 
	C600.709106,474.808197 600.567810,460.473724 600.722656,446.142487 
	C600.846985,434.639221 598.024292,434.843872 611.851746,434.821075 
	C637.351196,434.779022 662.850708,434.766571 688.350159,434.764984 
	C691.526611,434.764801 694.687378,434.696655 694.702332,430.382477 
	C694.748596,417.051392 694.844482,403.716675 694.568420,390.390656 
	C694.491516,386.679688 692.606506,383.825775 687.988525,383.839447 
	C653.825867,383.940430 619.662903,383.942169 584.500000,383.963715 
M458.869995,501.748993 
	C458.711395,508.071381 458.437286,514.393311 458.414764,520.716187 
	C458.328705,544.860352 458.344116,569.004883 458.274628,593.149109 
	C458.256195,599.552124 456.832306,605.703857 454.311371,611.569519 
	C450.947937,619.395630 440.607178,625.619324 432.081512,625.083862 
	C423.109100,624.520386 416.113007,618.341309 413.499115,608.837769 
	C411.827209,602.759033 412.763184,596.575989 412.635254,590.446533 
	C412.546356,586.187683 410.518829,584.225220 406.575256,584.200745 
	C393.247833,584.117981 379.919403,584.141174 366.591675,584.199280 
	C362.695984,584.216248 360.864441,586.352539 360.986511,590.250366 
	C361.101227,593.913696 361.201019,597.579834 361.187103,601.244324 
	C361.123108,618.098633 366.830505,632.971985 377.427185,645.797668 
	C394.302368,666.222534 416.138519,674.281799 442.532410,671.865906 
	C477.798309,668.637939 506.301056,639.936768 506.505096,604.952026 
	C506.918060,534.141602 506.636810,463.326996 506.597595,392.514099 
	C506.593811,385.672089 504.692993,383.924408 497.979767,383.929474 
	C487.650208,383.937256 477.275665,384.534790 467.007172,383.747375 
	C460.329865,383.235352 458.607727,383.382263 458.445251,391.976624 
	C458.215485,404.127899 458.347290,416.286774 458.391266,428.442200 
	C458.422577,437.096527 458.807220,445.756195 458.602570,454.403290 
	C458.236267,469.881714 458.580292,485.348480 458.869995,501.748993 
z"/>
<path fill="#000000" opacity="1.000000" stroke="none" 
	d="
M541.000000,770.749023 
	C597.827209,770.724243 654.159058,771.114929 710.479370,770.480713 
	C734.470947,770.210510 753.226807,758.255066 767.631592,739.367981 
	C770.437256,735.689331 772.385498,731.377563 776.226807,727.492981 
	C780.593262,733.520447 783.735901,739.762146 785.763306,746.578918 
	C786.028625,747.470825 786.014893,748.758850 785.552979,749.506714 
	C779.445923,759.392517 780.120178,772.286743 771.499573,781.074402 
	C770.257690,782.340393 769.171631,784.075684 768.746399,785.777039 
	C764.759583,801.728394 752.402161,809.258057 738.705078,814.788452 
	C722.450073,821.351624 706.863953,818.462891 691.774475,809.935425 
	C681.880371,804.344055 672.522339,798.221619 663.902649,790.788391 
	C656.542542,784.441406 647.393066,786.329468 642.151062,794.620422 
	C635.638977,804.920166 626.724243,811.884460 614.682007,814.605713 
	C608.827332,815.928650 603.147461,817.791199 597.508484,819.897705 
	C589.470337,822.900513 581.068909,823.882690 572.462158,823.196777 
	C562.010498,822.363892 551.545593,821.156921 541.083069,821.121521 
	C523.935425,821.063538 507.434845,824.454956 492.349213,833.127747 
	C488.355896,835.423462 486.293549,838.563904 487.558350,843.494934 
	C488.616150,847.618896 486.791962,850.855713 483.623810,853.590759 
	C477.679810,858.722351 470.618103,862.196899 464.289368,866.786560 
	C459.073273,870.569275 452.417908,870.160034 446.662781,866.991150 
	C437.925964,862.180542 428.973755,857.742920 420.975555,851.609131 
	C416.735718,848.357605 411.673187,846.448608 406.019653,847.048340 
	C396.511475,848.057007 389.023987,844.605896 382.534790,837.523987 
	C363.751312,817.024902 344.667938,796.799988 325.643097,776.522949 
	C320.143982,770.661804 312.763275,770.688721 305.739288,771.571533 
	C300.340759,772.250122 295.433533,772.335327 290.103790,770.767517 
	C282.620972,768.566528 274.883423,770.455383 267.297058,771.348572 
	C260.264069,772.176636 254.431305,770.386658 250.289627,764.377563 
	C248.208252,761.357605 245.142517,759.166809 243.392853,755.849487 
	C241.769562,752.771790 242.015915,750.235657 244.590378,747.764404 
	C248.875290,743.651367 254.217514,741.970337 259.795258,740.747620 
	C267.950745,738.959778 275.499390,735.533508 282.300385,730.912109 
	C285.298370,728.875000 286.722534,729.044739 288.847260,731.368042 
	C293.121857,736.042236 296.129639,741.697815 300.703949,746.160706 
	C312.857330,758.018066 326.409607,767.233887 343.568512,770.164185 
	C346.734131,770.704834 349.871948,770.690002 353.020172,770.692261 
	C415.513428,770.736145 478.006714,770.738708 541.000000,770.749023 
z"/>
<path fill="#000000" opacity="1.000000" stroke="none" 
	d="
M783.691650,407.999756 
	C783.685547,390.170441 783.542847,372.839752 783.720215,355.512329 
	C783.836060,344.189117 783.439819,332.981689 779.274902,322.176971 
	C779.657349,321.993042 780.039856,321.809113 780.422302,321.625183 
	C783.462708,325.367096 786.404297,329.194794 789.563110,332.833923 
	C797.312683,341.761963 805.164917,350.600861 812.970276,359.480438 
	C815.264832,362.090729 816.947327,364.633087 812.703613,367.102112 
	C811.523010,367.789001 811.315735,369.296082 810.905640,370.575836 
	C807.488953,381.238983 805.947021,392.272675 803.855774,403.232880 
	C800.232971,422.220032 799.880981,441.648590 795.317932,460.487244 
	C793.627686,467.465759 788.379883,472.422363 786.632935,479.887268 
	C783.321899,477.120850 783.831421,474.135925 783.818665,471.484558 
	C783.717468,450.489899 783.720154,429.494781 783.691650,407.999756 
z"/>
</svg>